<svg width="38875" height="37359" viewBox="0 0 38875 37359" fill="none" xmlns="http://www.w3.org/2000/svg">
<path d="M6455.9 25541V34414.2H32419.1V25541H6455.9Z" fill="#4F1F2C"/>
<path d="M17715.5 34414.2H21158.5V28734.1H17715.5V34414.2Z" fill="#20180F"/>
<path d="M10809.8 8574.79C12947 8574.79 19437 8574.79 19437 8574.79C19437 8574.79 25927 8574.79 28065.2 8574.79C30202.3 8574.79 32119.3 6963.46 32119.3 6963.46C32119.3 6963.46 30866.1 11172.3 27990.8 11172.3C25116.4 11172.3 19437 11172.3 19437 11172.3C19437 11172.3 13758.6 11172.3 10883.2 11172.3C8007.84 11172.3 6754.71 6963.46 6754.71 6963.46C6754.71 6963.46 8671.63 8574.79 10809.8 8574.79Z" fill="#C63938"/>
<path d="M19437 8574.79C19437 8574.79 14813.2 8574.79 12085.7 8574.79C12483.8 9762.51 13170.3 11172.3 14190.8 11172.3C15954.7 11172.3 19437 11172.3 19437 11172.3C19437 11172.3 22919.3 11172.3 24683.2 11172.3C25703.7 11172.3 26390.2 9762.51 26788.3 8574.79C24060.8 8574.79 19437 8574.79 19437 8574.79Z" fill="#C63938"/>
<path d="M9558.75 18059.5V22540.4H29315.2V18059.5H9558.75Z" fill="#4F1F2C"/>
<path d="M6455.9 25541V26501H32419.1V25541H6455.9Z" fill="#20180F"/>
<path d="M10078.8 32537.5H8614.77V25541H10078.8V32537.5Z" fill="#C63938"/>
<path d="M10461.4 32537.5H8233.24V34414.2H10461.4V32537.5Z" fill="#C63938"/>
<path d="M11847.9 11172.3V15462H27026.1V11172.3H11847.9Z" fill="#4F1F2C"/>
<path d="M11032.1 11172.3V11830.5H27841.9V11172.3H11032.1Z" fill="#20180F"/>
<path d="M11032.1 11172.3V11501.4H27841.9V11172.3H11032.1Z" fill="#20180F"/>
<path d="M28795.1 32537.5H30259.2V25541H28795.1V32537.5Z" fill="#C63938"/>
<path d="M28412.6 32537.5H30640.7V34414.2H28412.6V32537.5Z" fill="#C63938"/>
<path d="M13943.7 32537.5H12479.6V25541H13943.7V32537.5Z" fill="#C63938"/>
<path d="M14325.2 32537.5H12097.1V34414.2H14325.2V32537.5Z" fill="#C63938"/>
<path d="M24931.3 32537.5H26395.4V25541H24931.3V32537.5Z" fill="#C63938"/>
<path d="M24548.8 32537.5H26776.9V34414.2H24548.8V32537.5Z" fill="#C63938"/>
<path d="M19437 0L10809.8 8574.79H28065.2L19437 0Z" fill="#C63938"/>
<path d="M19437 2173.88L12996.6 8574.79H25877.4L19437 2173.88Z" fill="#20180F"/>
<path d="M33287.6 25541V26501H5587.39V25541H33287.6Z" fill="#20180F"/>
<path d="M33287.6 25541V25863.3H5587.39V25541H33287.6Z" fill="#20180F"/>
<path d="M27317.7 22562.1H27110.9V19837H27317.7V22562.1Z" fill="#C63938"/>
<path d="M22133.5 22562.1H21926.7V19837H22133.5V22562.1Z" fill="#C63938"/>
<path d="M16948.3 22562.1H16741.5V19837H16948.3V22562.1Z" fill="#C63938"/>
<path d="M11763.1 22562.1H11556.3V19837H11763.1V22562.1Z" fill="#C63938"/>
<path d="M29315.2 19950.9H9558.75V19723.2H29315.2V19950.9Z" fill="#C63938"/>
<path d="M25515.5 15460.8H25308.7V12943H25515.5V15460.8Z" fill="#C63938"/>
<path d="M21531.7 15460.8H21325V12943H21531.7V15460.8Z" fill="#C63938"/>
<path d="M17549 15460.8H17342.2V12943H17549V15460.8Z" fill="#C63938"/>
<path d="M13565.3 15460.8H13358.5V12943H13565.3V15460.8Z" fill="#C63938"/>
<path d="M27026.1 13056.9H11847.9V12829.2H27026.1V13056.9Z" fill="#C63938"/>
<path fill-rule="evenodd" clip-rule="evenodd" d="M9709.7 14299.3C9570.12 14299.3 9455.36 14174 9455.36 14019.2C9455.36 13865.4 9570.12 13740.2 9709.7 13740.2C9849.28 13740.2 9964.04 13865.4 9964.04 14019.2C9964.04 14174 9849.28 14299.3 9709.7 14299.3ZM9709.7 13967.9C9683.85 13967.9 9662.14 13990.7 9662.14 14019.2C9662.14 14077.2 9756.22 14076.1 9757.26 14019.2C9757.26 13990.7 9735.55 13967.9 9709.7 13967.9Z" fill="#20180F"/>
<path fill-rule="evenodd" clip-rule="evenodd" d="M29267.7 15870.8H9606.31V14071.5H29267.7V15870.8ZM9813.1 15643H29060.9V14299.3H9813.1V15643Z" fill="#20180F"/>
<path fill-rule="evenodd" clip-rule="evenodd" d="M29164.3 14299.3C29024.7 14299.3 28910.9 14174 28910.9 14019.2C28910.9 13865.4 29024.7 13740.2 29164.3 13740.2C29304.9 13740.2 29418.6 13865.4 29418.6 14019.2C29418.6 14174 29304.9 14299.3 29164.3 14299.3ZM29164.3 13967.9C29138.4 13967.9 29117.7 13990.7 29117.7 14019.2C29116.7 14077.2 29211.8 14076.1 29211.8 14019.2C29211.8 13990.7 29190.1 13967.9 29164.3 13967.9Z" fill="#20180F"/>
<path d="M30200.3 15462C28062.1 15462 19437 15462 19437 15462C19437 15462 10811.9 15462 8674.72 15462C6536.54 15462 4619.62 13849.5 4619.62 13849.5C4619.62 13849.5 5872.76 18059.5 8748.14 18059.5C11623.5 18059.5 19437 18059.5 19437 18059.5C19437 18059.5 27251.5 18059.5 30125.8 18059.5C33001.2 18059.5 34254.3 13849.5 34254.3 13849.5C34254.3 13849.5 32337.4 15462 30200.3 15462Z" fill="#C63938"/>
<path d="M28263.7 15462H26163.8C23038.2 15462 19437 15462 19437 15462C19437 15462 15835.8 15462 12710.2 15462H10611.3C11016.6 16649.7 11716.6 18059.4 12756.7 18059.4C15935 18059.4 19437 18059.4 19437 18059.4C19437 18059.4 22940 18059.4 26117.3 18059.4C27157.4 18059.4 27857.4 16649.7 28263.7 15462Z" fill="#C63938"/>
<path d="M8748.15 18059.5V18751.8H30125.8V18059.5H8748.15Z" fill="#20180F"/>
<path d="M8748.15 18059.5V18405.6H30125.8V18059.5H8748.15Z" fill="#20180F"/>
<path d="M4648.58 22562.1C7100.04 22562.1 19437 22562.1 19437 22562.1C19437 22562.1 31775 22562.1 34225.4 22562.1C36676.9 22562.1 38875 20713.9 38875 20713.9C38875 20713.9 37437.8 25541 34141.6 25541C30844.4 25541 19437 25541 19437 25541C19437 25541 8029.55 25541 4733.36 25541C1436.14 25541 0 20713.9 0 20713.9C0 20713.9 2197.11 22562.1 4648.58 22562.1Z" fill="#C63938"/>
<path fill-rule="evenodd" clip-rule="evenodd" d="M7641.83 21307.2C7502.24 21307.2 7387.48 21181.9 7387.48 21027C7387.48 20873.3 7502.24 20748 7641.83 20748C7781.41 20748 7896.18 20873.3 7896.18 21027C7896.18 21181.9 7781.41 21307.2 7641.83 21307.2ZM7641.83 20975.8C7615.98 20975.8 7594.27 20998.6 7594.27 21027C7594.27 21085.1 7689.39 21084 7689.39 21027C7689.39 20998.6 7667.67 20975.8 7641.83 20975.8Z" fill="#20180F"/>
<path fill-rule="evenodd" clip-rule="evenodd" d="M31335.5 22878.6H7538.43V21079.4H31335.5V22878.6ZM7745.22 22650.9H31128.7V21307.2H7745.22V22650.9Z" fill="#20180F"/>
<path fill-rule="evenodd" clip-rule="evenodd" d="M31232.1 21307.2C31092.6 21307.2 30978.8 21181.9 30978.8 21027C30978.8 20873.3 31092.6 20748 31232.1 20748C31372.8 20748 31486.5 20873.3 31486.5 21027C31486.5 21181.9 31372.8 21307.2 31232.1 21307.2ZM31232.1 20975.8C31206.3 20975.8 31185.6 20998.6 31185.6 21027C31184.6 21085.1 31279.7 21084 31279.7 21027C31279.7 20998.6 31258 20975.8 31232.1 20975.8Z" fill="#20180F"/>
<path d="M31599.2 22562.1H29085.7C24742.1 22562.1 19437 22562.1 19437 22562.1C19437 22562.1 14131.9 22562.1 9788.28 22562.1H7274.78C7760.73 23924 8598.22 25541 9843.08 25541C14236.3 25541 19437 25541 19437 25541C19437 25541 24637.7 25541 29030.9 25541C30275.7 25541 31113.2 23924 31599.2 22562.1Z" fill="#C63938"/>
<path d="M492.156 35662.3V37359H38381.8V35662.3H492.156Z" fill="#20180F"/>
<path d="M3514.35 34414.2V35662.3H35359.6V34414.2H3514.35Z" fill="#20180F"/>
<path d="M10809.8 8574.79H28065.2L27636.1 8148.9H11237.9L10809.8 8574.79Z" fill="#20180F"/>
</svg>
