<?xml version="1.0" encoding="UTF-8" standalone="no"?>
<svg
   xmlns:dc="http://purl.org/dc/elements/1.1/"
   xmlns:cc="http://creativecommons.org/ns#"
   xmlns:rdf="http://www.w3.org/1999/02/22-rdf-syntax-ns#"
   xmlns:svg="http://www.w3.org/2000/svg"
   xmlns="http://www.w3.org/2000/svg"
   xmlns:sodipodi="http://sodipodi.sourceforge.net/DTD/sodipodi-0.dtd"
   xmlns:inkscape="http://www.inkscape.org/namespaces/inkscape"
   width="420"
   height="420"
   viewBox="0 0 111.125 111.12501"
   version="1.1"
   id="svg8"
   inkscape:version="1.0.2-2 (e86c870879, 2021-01-15)"
   sodipodi:docname="Katakana letter A.svg">
  <defs
     id="defs2" />
  <sodipodi:namedview
     id="base"
     pagecolor="#ffffff"
     bordercolor="#666666"
     borderopacity="1.0"
     inkscape:pageopacity="0.0"
     inkscape:pageshadow="2"
     inkscape:zoom="0.98994949"
     inkscape:cx="345.76714"
     inkscape:cy="230.41447"
     inkscape:document-units="px"
     inkscape:current-layer="layer1"
     showgrid="false"
     units="px"
     showguides="true"
     inkscape:guide-bbox="true"
     inkscape:snap-center="true"
     inkscape:snap-object-midpoints="false"
     inkscape:window-width="1280"
     inkscape:window-height="657"
     inkscape:window-x="-8"
     inkscape:window-y="-8"
     inkscape:window-maximized="1"
     inkscape:document-rotation="0"
     inkscape:snap-bbox="true"
     inkscape:bbox-paths="true"
     inkscape:bbox-nodes="true" />
  <metadata
     id="metadata5">
    <rdf:RDF>
      <cc:Work
         rdf:about="">
        <dc:format>image/svg+xml</dc:format>
        <dc:type
           rdf:resource="http://purl.org/dc/dcmitype/StillImage" />
        <dc:title />
      </cc:Work>
    </rdf:RDF>
  </metadata>
  <g
     inkscape:label="Layer 1"
     inkscape:groupmode="layer"
     id="layer1"
     transform="translate(0,-185.87499)">
    <path
       d="m 16.457209,209.74052 c 0.317499,2.43415 0.529165,4.65665 1.375829,6.45581 1.587495,3.28082 6.455813,7.51414 9.101638,7.51414 2.539992,0 2.645825,-1.90499 6.773312,-2.75166 11.853296,-2.32832 41.909868,-6.56164 46.989852,-6.56164 2.222493,0 2.645825,0.42333 1.269996,2.43416 -3.069157,4.33915 -11.64163,11.53579 -19.790771,17.25078 -1.904994,-1.27 -4.868318,-2.32833 -8.254974,-2.8575 -1.904994,-0.42333 -3.704155,-0.42333 -6.773312,-0.42333 l -0.529165,2.32833 c 4.656652,1.58749 8.572473,3.17499 8.572473,6.34998 0,7.19664 -13.017459,32.3849 -33.972393,45.19069 l 1.693328,2.22249 c 22.330763,-11.42996 33.337395,-26.24658 41.27487,-47.83651 0.211666,-0.635 0.317499,-1.16417 0.317499,-1.69333 9.630803,-5.39748 19.04994,-12.1708 23.600759,-15.55745 2.328326,-1.79916 6.561646,-2.2225 6.561646,-4.65665 0,-2.96333 -7.514143,-9.41914 -10.371634,-9.41914 -1.799161,0 -2.751658,1.48166 -4.974151,1.79916 -6.138314,0.9525 -47.201518,5.39748 -53.97483,5.39748 -3.069157,0 -4.550819,-2.64582 -6.667479,-5.82081 z"
       style="font-style:normal;font-variant:normal;font-weight:normal;font-stretch:normal;font-size:105.833px;line-height:100%;font-family:'Noto Serif CJK JP';-inkscape-font-specification:'Noto Serif CJK JP';text-align:center;letter-spacing:0px;word-spacing:0px;text-anchor:middle;fill:#000000;fill-opacity:1;stroke:none;stroke-width:0.264583px;stroke-linecap:butt;stroke-linejoin:miter;stroke-opacity:1"
       id="path9" />
  </g>
</svg>
